<?xml version="1.0" standalone="no"?>
<!DOCTYPE svg PUBLIC "-//W3C//DTD SVG 20010904//EN"
 "http://www.w3.org/TR/2001/REC-SVG-20010904/DTD/svg10.dtd">
<svg version="1.0" xmlns="http://www.w3.org/2000/svg"
 width="800.000000pt" height="800.000000pt" viewBox="0 0 800.000000 800.000000"
 preserveAspectRatio="xMidYMid meet">

<g transform="translate(0.000000,800.000000) scale(0.100000,-0.100000)"
fill="#000000" stroke="none">
<path d="M3900 7486 c-52 -14 -114 -46 -498 -263 -101 -57 -186 -103 -189
-103 -4 0 -14 -6 -22 -14 -9 -7 -45 -29 -81 -48 -101 -54 -180 -98 -240 -133
-58 -34 -93 -54 -253 -141 -53 -30 -134 -75 -180 -101 -45 -25 -172 -97 -282
-158 -110 -62 -335 -187 -500 -280 -165 -92 -331 -185 -370 -206 -38 -22 -77
-43 -85 -49 -8 -5 -42 -23 -75 -41 -89 -46 -176 -108 -209 -146 -16 -19 -40
-62 -55 -96 l-26 -62 -3 -1605 c-3 -1664 -3 -1675 38 -1765 27 -60 107 -135
196 -183 43 -23 117 -64 164 -91 84 -47 205 -115 615 -346 116 -64 244 -137
285 -160 41 -24 98 -55 125 -71 28 -15 84 -46 125 -69 41 -23 116 -65 165 -92
50 -28 106 -59 125 -70 121 -69 436 -246 495 -278 39 -21 99 -55 135 -75 66
-39 405 -230 495 -280 104 -58 207 -73 303 -45 62 19 106 42 423 223 135 77
272 154 305 171 32 17 66 36 74 41 17 12 344 195 440 248 78 42 394 220 520
292 36 21 88 50 115 65 137 75 170 94 295 165 130 74 205 116 300 168 25 13
70 39 100 57 30 17 102 58 160 90 174 96 205 118 253 172 89 101 82 -52 85
1758 2 1127 0 1617 -8 1657 -26 135 -104 230 -255 311 -49 26 -97 52 -105 57
-8 5 -67 38 -130 73 -115 65 -160 90 -320 177 -47 26 -119 66 -160 90 -41 23
-124 69 -185 103 -60 33 -152 84 -203 113 -51 30 -94 54 -97 54 -2 0 -38 20
-79 45 -42 25 -79 45 -81 45 -2 0 -46 24 -97 53 -51 30 -122 70 -158 89 -36
20 -96 54 -135 75 -38 22 -137 77 -220 123 -155 86 -596 333 -675 378 -152 88
-248 109 -360 78z m261 -1156 c415 -30 808 -164 1142 -391 129 -87 132 -90
256 -200 99 -87 186 -179 263 -276 64 -80 188 -260 188 -272 0 -5 -28 -25 -62
-44 -35 -19 -164 -93 -288 -164 -124 -71 -250 -144 -280 -160 -30 -17 -126
-72 -214 -122 -87 -50 -163 -91 -170 -91 -6 1 -28 27 -49 60 -94 144 -254 280
-433 370 -184 92 -352 126 -568 117 -547 -23 -996 -420 -1091 -964 -28 -158
-17 -356 27 -508 57 -199 151 -358 298 -506 161 -161 347 -264 567 -314 153
-35 353 -35 506 0 203 46 384 142 539 285 66 61 168 183 204 245 9 17 21 13
145 -55 74 -40 163 -90 199 -110 36 -21 198 -110 360 -198 162 -89 304 -167
314 -175 19 -14 17 -19 -56 -128 -330 -497 -798 -836 -1355 -984 -188 -50
-314 -67 -544 -72 -166 -4 -246 -2 -350 11 -675 85 -1279 459 -1652 1023 -152
232 -228 392 -298 633 -67 231 -92 410 -92 660 0 383 80 724 248 1055 368 728
1099 1216 1910 1275 150 11 188 11 336 0z m1339 -1995 l0 -165 170 0 170 0 0
-170 0 -170 -170 0 -170 0 0 -165 0 -165 -170 0 -170 0 0 165 0 165 -165 0
-165 0 0 170 0 170 165 0 165 0 0 165 0 165 170 0 170 0 0 -165z m1172 0 l-3
-165 166 0 165 0 0 -170 0 -170 -165 0 -166 0 3 -165 3 -165 -172 0 -173 0 0
165 0 165 -165 0 -165 0 0 170 0 170 165 0 165 0 0 165 0 165 173 0 172 0 -3
-165z"/>
</g>
</svg>
