<?xml version="1.0" standalone="no"?>
<!DOCTYPE svg PUBLIC "-//W3C//DTD SVG 20010904//EN"
 "http://www.w3.org/TR/2001/REC-SVG-20010904/DTD/svg10.dtd">
<svg version="1.0" xmlns="http://www.w3.org/2000/svg"
 width="262.000000pt" height="192.000000pt" viewBox="0 0 262.000000 192.000000"
 preserveAspectRatio="xMidYMid meet">

<g transform="translate(0.000000,192.000000) scale(0.100000,-0.100000)"
fill="#000000" stroke="none">
<path d="M1237 1664 c-3 -3 -23 -6 -44 -6 -21 0 -42 -3 -48 -7 -5 -4 -20 -8
-31 -9 -39 -1 -99 -36 -96 -55 2 -10 -2 -16 -9 -15 -18 4 -27 -37 -28 -129
l-1 -83 165 0 c140 0 165 -2 165 -15 0 -8 0 -18 0 -22 0 -5 -118 -10 -262 -13
-237 -5 -265 -7 -288 -24 -14 -10 -18 -16 -9 -13 17 5 39 -9 39 -26 0 -4 -9
-5 -20 -2 -11 4 -20 2 -20 -4 0 -6 5 -11 10 -11 6 0 10 -4 10 -10 0 -5 -7 -10
-15 -10 -8 0 -15 5 -15 10 0 6 -9 10 -21 10 -11 0 -17 5 -14 10 10 16 -1 11
-16 -7 -8 -9 -9 -14 -3 -10 6 4 11 -6 11 -26 0 -18 3 -41 7 -53 5 -15 3 -21
-7 -21 -9 0 -13 8 -10 21 4 21 4 21 -12 1 -9 -11 -20 -19 -25 -18 -4 1 -13
-33 -19 -76 -12 -79 -1 -212 20 -237 5 -6 6 -13 3 -17 -3 -3 3 -25 14 -50 22
-49 83 -103 107 -93 9 3 13 2 10 -4 -4 -6 22 -10 68 -10 l74 0 5 103 c5 112
16 143 70 193 61 58 66 59 309 64 l226 5 37 29 c61 46 66 69 66 293 0 183 -2
201 -21 232 -26 43 -60 72 -77 66 -7 -3 -10 -1 -7 4 7 13 -16 19 -105 31 -85
11 -184 13 -193 4z m-20 -30 c-3 -3 -12 -4 -19 -1 -8 3 -5 6 6 6 11 1 17 -2
13 -5z m-18 -19 c3 -4 -15 -6 -40 -4 -34 3 -45 1 -42 -8 3 -7 8 -12 11 -11 19
2 32 -3 32 -13 0 -6 -5 -7 -12 -2 -7 4 -21 6 -31 5 -9 -2 -16 2 -15 9 2 6 -3
14 -11 17 -9 3 -11 0 -6 -9 5 -8 5 -11 0 -7 -4 4 -14 1 -22 -7 -8 -8 -18 -15
-23 -15 -13 0 -20 29 -8 36 7 4 8 3 4 -4 -4 -7 -2 -12 3 -12 6 0 11 3 11 8 0
23 128 38 149 17z m1 -27 c0 -4 -4 -8 -9 -8 -5 0 -7 -22 -5 -50 4 -40 1 -53
-16 -70 -24 -24 -72 -26 -90 -5 -11 13 -14 13 -26 -2 -11 -15 -11 -12 -2 20
10 32 9 40 -3 48 -25 15 -29 10 -31 -38 l-1 -48 -4 43 c-2 23 -9 42 -15 42 -6
0 -8 3 -4 8 4 4 11 7 15 7 4 0 15 8 25 18 10 9 23 17 29 17 7 0 4 -7 -5 -14
-10 -7 -15 -16 -12 -19 3 -3 16 3 28 14 17 17 30 20 63 15 36 -5 41 -3 38 13
-2 10 3 18 11 18 8 0 14 -4 14 -9z m-185 -28 c3 -5 1 -10 -4 -10 -6 0 -11 5
-11 10 0 6 2 10 4 10 3 0 8 -4 11 -10z m-190 -270 c-11 -5 -27 -9 -35 -9 -13
-1 -13 0 0 9 8 5 24 9 35 9 l20 0 -20 -9z m85 0 c0 -5 -4 -10 -10 -10 -5 0
-10 5 -10 10 0 6 5 10 10 10 6 0 10 -4 10 -10z m-33 -6 c-3 -3 -12 -4 -19 -1
-8 3 -5 6 6 6 11 1 17 -2 13 -5z m-138 -83 c22 -19 16 -32 -16 -37 -12 -2 -25
34 -17 48 7 11 8 11 33 -11z"/>
<path d="M655 1170 c-4 -12 -5 -24 -2 -27 3 -2 8 5 12 17 4 12 5 24 2 27 -3 2
-8 -5 -12 -17z"/>
</g>
</svg>
