<?xml version="1.0" standalone="no"?>
<!DOCTYPE svg PUBLIC "-//W3C//DTD SVG 20010904//EN"
 "http://www.w3.org/TR/2001/REC-SVG-20010904/DTD/svg10.dtd">
<svg version="1.0" xmlns="http://www.w3.org/2000/svg"
 width="280.000000pt" height="180.000000pt" viewBox="0 0 280.000000 180.000000"
 preserveAspectRatio="xMidYMid meet">

<g transform="translate(0.000000,180.000000) scale(0.100000,-0.100000)"
fill="#000000" stroke="none">
<path d="M1226 1670 c-78 -13 -146 -47 -168 -85 -17 -32 -21 -59 -19 -167 l1
-68 180 0 180 0 0 -24 0 -24 -282 -4 c-280 -3 -283 -3 -328 -28 -24 -14 -59
-44 -76 -67 -85 -112 -87 -416 -3 -548 39 -62 89 -84 190 -85 l77 0 4 108 c5
142 37 204 133 255 37 20 59 22 285 27 254 5 265 7 307 52 47 50 53 84 53 300
0 182 -2 206 -20 244 -22 45 -76 88 -131 105 -46 14 -309 20 -383 9z m8 -111
c37 -29 33 -83 -6 -112 -27 -20 -29 -20 -63 -4 -71 34 -49 132 31 136 6 1 23
-9 38 -20z"/>
</g>
</svg>
